/* XPM */
static char *result[] = {
/* columns rows colors chars-per-pixel */
"100 100 90 1 ",
"  c #B3CE59",
". c #B3CE5A",
"X c #B3CE5B",
"o c #B4CF5C",
"O c #B5CF5E",
"+ c #B5CF60",
"@ c #B6D061",
"# c #B7D062",
"$ c #B7D063",
"% c #B7D163",
"& c #B8D164",
"* c #B8D165",
"= c #B8D166",
"- c #B9D266",
"; c #B9D267",
": c #B9D268",
"> c #BAD269",
", c #BAD26A",
"< c #BAD36A",
"1 c #BBD36B",
"2 c #BBD36C",
"3 c #BCD46D",
"4 c #BCD46E",
"5 c #BDD46F",
"6 c #BDD470",
"7 c #BDD570",
"8 c #BED571",
"9 c #BED572",
"0 c #BED573",
"q c #BFD574",
"w c #BFD674",
"e c #BFD675",
"r c #C0D676",
"t c #C0D777",
"y c #C1D778",
"u c #C1D779",
"i c #C2D77A",
"p c #C2D87B",
"a c #C3D87C",
"s c #C3D87E",
"d c #C4D97E",
"f c #C4D980",
"g c #C5D981",
"h c #C5DA82",
"j c #C6DA83",
"k c #C7DB84",
"l c #C7DB85",
"z c #C8DB87",
"x c #C8DB88",
"c c #C9DC89",
"v c #C9DC8A",
"b c #CADD8B",
"n c #CADD8D",
"m c #CBDD8F",
"M c #CBDE8F",
"N c #CCDE91",
"B c #CDDF92",
"V c #CEDF94",
"C c #CEDF95",
"Z c #CEE095",
"A c #CFE096",
"S c #CFE097",
"D c #CFE098",
"F c #D0E19A",
"G c #D1E19C",
"H c #D2E29C",
"J c #D2E29D",
"K c #D2E29E",
"L c #D3E29F",
"P c #D3E3A0",
"I c #D4E3A1",
"U c #D4E3A3",
"Y c #E0E7A3",
"T c #E0E8A4",
"R c #E1E8A4",
"E c #E1E8A5",
"W c #E2E9A6",
"Q c #E2E9A7",
"! c #E3EAA8",
"~ c #E5EAA9",
"^ c #E4EBAA",
"/ c #E6EBAA",
"( c #E6EBAB",
") c #E5ECAB",
"_ c #E7ECAB",
"` c #E7ECAC",
"' c #E7ECAD",
"] c #E8ECAD",
"[ c #E8EDAD",
"{ c #E8EDAE",
/* pixels */
"0000000000000000000000000000000000000000000000000000000000000000000000000000000000000000000000000000",
"0000000000000000000000000000000000000000000000000000000000000000000000000000000000000000000000000000",
"0000000000000000000000000000000000000000000000000000000000000000000000000000000000000000000000000000",
"0000000000000000000000000000000000000000000000000000000000000000000000000000000000000000000000000000",
"000000000000000000000000000000000000000000000000000000000000001>>5005>>20000000000000000000000000000",
"00000000000000000000000000000000000000000000000000000000000008+XX,00:XX+0000000000000000000000000000",
"00000000000000000000000000000000000000000000000000000000000008+.X,qq:X.+0000000000000000000000000000",
"00000000000000000000000000000000073340093338000000000000000008&++:33;++*0000000000000000000000000000",
"000000000000000000000000000000000:XX@006OXo3000000000000000000090%XX*0900000000000000000000000000000",
"000000000000000000000000000000000:XX@006oXX2000000000000000000000%..*0000000000000000000000000000000",
"000000000000000000000000000000000,Oo#663+OO3000000000000000000000*oo-0000000000000000000000000000000",
"0000000000000000000000000000000008671Oo+376900000000000000000000086680000000000000000000000000000000",
"0000000000000000000000000000000000002XXo600000000000000000000000000000000000000000000000000000000000",
"0000000000000000000000000000000000003oXO600000000000000000000000000000000000000000000000000000000000",
"0000000000000000000000000000000000008333000000000000000000000000000000000000000000000000000000000000",
"0000000000000000000000000000000000000000000000000000000000000000000000000000000000000000000000000000",
"0000000000000000000000000000000000000000000000000000000000000000000000000000000000000000000000000000",
"0000000000000000000000000000000000000000000000000000000000000000000000000000000000000000000000000000",
"0000000000000000000000000000000000000000000000000000000000000000000000000000000000000000000000000000",
"0000000000000000000000000000000000000000000000000000000000000000000000000000000000000000000000000000",
"0000000000000000000000000000000000000000000000000000000000000000000000000000000000000000000000000000",
"0000000000000000000000000000000000000000000000000000000000000000000000000000000000000000000000000000",
"0000000000000000000000000000000000000000000000000000000000000000000000000000000000000000000000000000",
"0000000000000000000000000000000000000000000000000000000000000000000000000000000000000000000000000000",
"0000000000000000000000000000000000000000000000000000000000000000000000000000000000000000000000000000",
"0000000000000000000000000000000000000000000000000000000000000000000000000000000000000000000000000000",
"0000000000000000000000000000000000000000000000000000000000000000000000000000000000000009656000755800",
"0000000000000000000000000000000000000000000000000000000000000000000000000000000000000004OoO500%oo:00",
"0000000000000000000000000000000000000000000000000000000000000000000000000000000000000003oXo500#XX-00",
"0000000000000098800008880000000000000000000000000000000000000000000000000000000000000004ooO488$XX-00",
"00000000000000*++>003++$8000000000000000000000000000000000000000000000000000000000000008433@++,43700",
"00000000000000@..-001XXO8000000000000000000000000000000000000000000000000000000000000000008OXX1q0000",
"00000000000000#XX-001XXO8000000000000000000000000000000000000000000000000000000000000000008OXX100000",
"000000000000003<<-$$*<<290000000000000000000000000000000000000000000000000000000000000000092<<600000",
"0000000000000000w-  @0000000000000000000000000000000000000000000000000000000000000000000000000000000",
"00000000000000000-..@0000000000000000000000000000000000000000000000000000000000000000000000000000000",
"000000000000000002==<0000000000000000000000000000000000000000000000000000000000000000000000000000000",
"0000000000000000000000000000000000000000000000000000000000000000000000000000000000000000000000000000",
"0000000000000000000000000000000000000000000000000000000000000000000000000000000000000000000000000000",
"0000000000000000000000000000000000000000000000000000000000000000000061130092128000000000000000000000",
"00000000000000000000000000000000000000000000000000000000000000000000:XX@006OXX2000000000000000000000",
"00000000000000000000000000000000000000000000000000000000000000000000:XX+007oXX2000000000000000000000",
"00000000000000000000000000000000000000000000000000000000000000000000,OO$453+O+3000000000000000000000",
"000000000000000000000000000000000000000000000000000000000000000000009882ooO5880000000000000000000000",
"000000000000000000000000000000000000000000000000000000000000000000000002XXo6000000000000000000000000",
"000000000000000000000000000000000000000000000000000000000000000000000003ooO7000000000000000000000000",
"0000000000000000000000000000000000000000000000000000000000000000000000085550000000000000000000000000",
"0000000000000000000000000000000000000000000000000000000000000000000000000000000000000000000000000000",
"0000000000000000000000000000000000000000000000000000000000000000000000000000000000000000000000000000",
"0000000000000000000000000000000000000000000000000000000000000000000000000000000000000000000000000000",
"0000000000000000000000000000000000000000000000000000000000000000000000000000000000000000000000000000",
"0000000000000000000000000000000000000000000000000000000000000000000000000000000000000000000000000000",
"0000000000000000000000000000000000000000000000000000000000000000000000000000000000000000000000000000",
"0000000000000000000000000000000000000000000000000000000000000000000000000000000000000000000000000000",
"0000000000000000000000000000000000000000000000000000000000000000000000000000000000000000000000000000",
"0000000000000000000000000000000000000000000000000000000000000000000000000000000000000000000000000000",
"0000000000000000000000000000000000000000000000000000000000000000000000000000000000000000000000000000",
"0000000000000000000000000000000000000000999000099000000000000000000000000000000000000000000000000000",
"000000000000000000000000000000000000000wsddr00iddi00000000000000000000000000000000000000000000000000",
"000000000000000000000000000000000000000iT^!h99V//D00000000000000000000000000000000000000000000000000",
"000000000000000000000000000000000000000iW'(h99Z[[F00000000000000000000000000000000000000000000000000",
"000000000000000000000000000000000000000iQ[)h88Z{{F00000000000000000000000000000000000000000000000000",
"000000000000000000000000000000000000000ecnnCSSNnnj00000000000000000000000000000000000000000000000000",
"0000000000000000000000000000000000000000980I{{n78900000000000000000000000000000000000000000000000000",
"000000000000000000000000000000000000000000wI{{m80000000000000000000000000009890009889000000000000000",
"000000000000000000000000000000000000000000qmDDh900000000000000000000000000ecbbu00gnnh000000000000000",
"00000000000000000000000000000000000000000000000000000000000000000000000000iW])h99A[[F000000000000000",
"00000000000000000000000000000000000000000000000000000000000000000000000000iQ[_h78A{{F000000000000000",
"00000000000000000000000000000000000000000000000000000000000000000000000000tHIPvhhVUUN000000000000000",
"000000000000000000000000000000000000000000000000000000000000000000000000000wwrP))mqeq000000000000000",
"00000000000000000000000000000000000000000000000000000000000000000000000000000wI[[m800000000000000000",
"00000000000000000000000000000000000000000000000000000000000000000000000000000wGWWv900000000000000000",
"000000000000000000000000000000000000000000000000000000000000000000000000000000tiie000000000000000000",
"0000000000000000000000000000000000000000000000000000000000000000000000000000000000000000000000000000",
"0000000000000000000000000000000000000000000000000000000000000000000000000000000000000000000000000000",
"0000000000000000000000000000000000000000000000000000000000000000000000000000000000000000000000000000",
"0000000000000000000000000000000000000000000000000000000000000000000000000000000000000000000000000000",
"0000000000000000000000000000000000000000000000000000000000000000000000000000000000000000000000000000",
"0000000000000000000000000000000000000000000000000000000000000000000000000000000000000000000000000000",
"0000000000000000000000000000000000000000000000000000000000000000000000000000000000000000000000000000",
"0000000000000000009890009990000000000000000000000000000000000000000000000000000000000000000000000000",
"00000000000000000gMMl00tbmny000000000000000000000000000000000000000000000000000000000000000000000000",
"00000000000000009B{{K09a![/f900000000000000000000000000000000000000000000000000000000000000000000000",
"00000000000000009B{{K08p~[/f900000000000000000000000000000000000000000000000000000000000000000000000",
"00000000000000009cPPSkjxJPHa000000000000000000000000000000000000000000000000000000000000000000000000",
"000000000000000000q0z(`Yuqq0000000000000000000000000000000000000000000000000000000000000000000000000",
"00000000000000000008l`[Rt000000000000000000000000000000000000000000000000000000000000000000000000000",
"00000000000000000009jTELt000000000000000000000000000000000000000000000000000000000000000000000000000",
"00000000000000000000wtyt0000000000000000000000000000000000000000000000000000000000000000000000000000",
"0000000000000000000000000000000000000000000000000000000000000000000000000000000000000000000000000000",
"0000000000000000000000000000000000000000000000000000000000000000000000000000000000000000000000000000",
"0000000000000000000000000000000000000000000000000000000000000000000000000000000000000000000000000000",
"0000000000000000000000000000000000000000000000000000000000000000000000000000000000000000000000000000",
"0000000000000000000000000000000000000000000000000000000000000000000000000000000000000000000000000000",
"0000000000000000000000000000000000000000000000000000000000000000000000000000000000000000000000000000",
"0000000000000000000000000000000000000000000000000000000000000000000000000000000000000000000000000000",
"0000000000000000000000000000000000000000000000000000000000000000000000000000000000000000000000000000",
"0000000000000000000000000000000000000000000000000000000000000000000000000000000000000000000000000000",
"0000000000000000000000000000000000000000000000000000000000000000000000000000000000000000000000000000",
"0000000000000000000000000000000000000000000000000000000000000000000000000000000000000000000000000000"
};
